2014053_C4_04_grf
version=1
nRows=34
nColumns=19
inDegrees=no
endheader
time	ground_force_1_vx	ground_force_1_vy	ground_force_1_vz	ground_force_1_px	ground_force_1_py	ground_force_1_pz	ground_force_1_mx	ground_force_1_my	ground_force_1_mz	ground_force_2_vx	ground_force_2_vy	ground_force_2_vz	ground_force_2_px	ground_force_2_py	ground_force_2_pz	ground_force_2_mx	ground_force_2_my	ground_force_2_mz
      0.90500000	      0.00000000	      0.00000000	      0.00000000	      0.00000000	      0.00000000	      0.00000000	      0.00000000	      0.00000000	      0.00000000	    -21.89122979	    501.83185935	    -17.20741633	      0.82527810	      0.00000000	     -0.12992051	      0.00000000	     -1.41787719	      0.00000000
      0.90600000	      0.00000000	      0.00000000	      0.00000000	      0.00000000	      0.00000000	      0.00000000	      0.00000000	      0.00000000	      0.00000000	    -21.47662453	    501.57040358	    -17.12086760	      0.82542712	      0.00000000	     -0.12989932	      0.00000000	     -1.39435750	      0.00000000
      0.90700000	      0.00000000	      0.00000000	      0.00000000	      0.00000000	      0.00000000	      0.00000000	      0.00000000	      0.00000000	      0.00000000	    -21.06273826	    501.35502219	    -17.03315657	      0.82557717	      0.00000000	     -0.12987846	      0.00000000	     -1.37058636	      0.00000000
      0.90800000	      0.00000000	      0.00000000	      0.00000000	      0.00000000	      0.00000000	      0.00000000	      0.00000000	      0.00000000	      0.00000000	    -20.64956166	    501.17594004	    -16.94498509	      0.82572813	      0.00000000	     -0.12985780	      0.00000000	     -1.34662492	      0.00000000
      0.90900000	      0.00000000	      0.00000000	      0.00000000	      0.00000000	      0.00000000	      0.00000000	      0.00000000	      0.00000000	      0.00000000	    -20.23743931	    501.04135275	    -16.85682144	      0.82588038	      0.00000000	     -0.12983729	      0.00000000	     -1.32244178	      0.00000000
      0.91000000	      0.00000000	      0.00000000	      0.00000000	      0.00000000	      0.00000000	      0.00000000	      0.00000000	      0.00000000	      0.00000000	    -19.82629672	    500.94169378	    -16.76912829	      0.82603375	      0.00000000	     -0.12981681	      0.00000000	     -1.29809584	      0.00000000
      0.91100000	      0.00000000	      0.00000000	      0.00000000	      0.00000000	      0.00000000	      0.00000000	      0.00000000	      0.00000000	      0.00000000	    -19.41655949	    500.88477135	    -16.68259967	      0.82618864	      0.00000000	     -0.12979626	      0.00000000	     -1.27356473	      0.00000000
      0.91200000	      0.00000000	      0.00000000	      0.00000000	      0.00000000	      0.00000000	      0.00000000	      0.00000000	      0.00000000	      0.00000000	    -19.00810003	    500.86122751	    -16.59745574	      0.82634485	      0.00000000	     -0.12977559	      0.00000000	     -1.24890064	      0.00000000
      0.91300000	      0.00000000	      0.00000000	      0.00000000	      0.00000000	      0.00000000	      0.00000000	      0.00000000	      0.00000000	      0.00000000	    -18.60144548	    500.87833405	    -16.51459057	      0.82650285	      0.00000000	     -0.12975463	      0.00000000	     -1.22408945	      0.00000000
      0.91400000	      0.00000000	      0.00000000	      0.00000000	      0.00000000	      0.00000000	      0.00000000	      0.00000000	      0.00000000	      0.00000000	    -18.19640771	    500.92703104	    -16.43397845	      0.82666238	      0.00000000	     -0.12973337	      0.00000000	     -1.19917725	      0.00000000
      0.91500000	      0.00000000	      0.00000000	      0.00000000	      0.00000000	      0.00000000	      0.00000000	      0.00000000	      0.00000000	      0.00000000	    -17.79360976	    501.01411343	    -16.35669898	      0.82682397	      0.00000000	     -0.12971162	      0.00000000	     -1.17416170	      0.00000000
      0.91600000	      0.00000000	      0.00000000	      0.00000000	      0.00000000	      0.00000000	      0.00000000	      0.00000000	      0.00000000	      0.00000000	    -17.39278249	    501.13087893	    -16.28248505	      0.82698730	      0.00000000	     -0.12968940	      0.00000000	     -1.14908263	      0.00000000
      0.91700000	      0.00000000	      0.00000000	      0.00000000	      0.00000000	      0.00000000	      0.00000000	      0.00000000	      0.00000000	      0.00000000	    -16.99463837	    501.28340721	    -16.21257495	      0.82715296	      0.00000000	     -0.12966648	      0.00000000	     -1.12395063	      0.00000000
      0.91800000	      0.00000000	      0.00000000	      0.00000000	      0.00000000	      0.00000000	      0.00000000	      0.00000000	      0.00000000	      0.00000000	    -16.59881696	    501.46359205	    -16.14646353	      0.82732058	      0.00000000	     -0.12964295	      0.00000000	     -1.09879858	      0.00000000
      0.91900000	      0.00000000	      0.00000000	      0.00000000	      0.00000000	      0.00000000	      0.00000000	      0.00000000	      0.00000000	      0.00000000	    -16.20611362	    501.67688727	    -16.08550977	      0.82749079	      0.00000000	     -0.12961853	      0.00000000	     -1.07364804	      0.00000000
      0.92000000	      0.00000000	      0.00000000	      0.00000000	      0.00000000	      0.00000000	      0.00000000	      0.00000000	      0.00000000	      0.00000000	    -15.81606455	    501.91563368	    -16.02898389	      0.82766317	      0.00000000	     -0.12959334	      0.00000000	     -1.04852204	      0.00000000
      0.92100000	      0.00000000	      0.00000000	      0.00000000	      0.00000000	      0.00000000	      0.00000000	      0.00000000	      0.00000000	      0.00000000	    -15.42952470	    502.18477845	    -15.97834155	      0.82783838	      0.00000000	     -0.12956708	      0.00000000	     -1.02345653	      0.00000000
      0.92200000	      0.00000000	      0.00000000	      0.00000000	      0.00000000	      0.00000000	      0.00000000	      0.00000000	      0.00000000	      0.00000000	    -15.04593901	    502.47710943	    -15.93266018	      0.82801593	      0.00000000	     -0.12953991	      0.00000000	     -0.99846509	      0.00000000
      0.92300000	      0.00000000	      0.00000000	      0.00000000	      0.00000000	      0.00000000	      0.00000000	      0.00000000	      0.00000000	      0.00000000	    -14.66622343	    502.79697776	    -15.89346305	      0.82819653	      0.00000000	     -0.12951152	      0.00000000	     -0.97359952	      0.00000000
      0.92400000	      0.00000000	      0.00000000	      0.00000000	      0.00000000	      0.00000000	      0.00000000	      0.00000000	      0.00000000	      0.00000000	    -14.28973954	    503.13776731	    -15.85965604	      0.82837963	      0.00000000	     -0.12948208	      0.00000000	     -0.94886119	      0.00000000
      0.92500000	      0.00000000	      0.00000000	      0.00000000	      0.00000000	      0.00000000	      0.00000000	      0.00000000	      0.00000000	      0.00000000	    -13.91746104	    503.50329280	    -15.83281104	      0.82856596	      0.00000000	     -0.12945129	      0.00000000	     -0.92431280	     -0.00000000
      0.92600000	      0.00000000	      0.00000000	      0.00000000	      0.00000000	      0.00000000	      0.00000000	      0.00000000	      0.00000000	      0.00000000	    -13.54867127	    503.88759375	    -15.81170037	      0.82875493	      0.00000000	     -0.12941936	      0.00000000	     -0.89993974	      0.00000000
      0.92700000	      0.00000000	      0.00000000	      0.00000000	      0.00000000	      0.00000000	      0.00000000	      0.00000000	      0.00000000	      0.00000000	    -13.18439050	    504.29409742	    -15.79793673	      0.82894727	      0.00000000	     -0.12938597	      0.00000000	     -0.87581295	      0.00000000
      0.92800000	      0.00000000	      0.00000000	      0.00000000	      0.00000000	      0.00000000	      0.00000000	      0.00000000	      0.00000000	      0.00000000	    -12.82382943	    504.71729040	    -15.79017676	      0.82914239	      0.00000000	     -0.12935137	      0.00000000	     -0.85190459	      0.00000000
      0.92900000	      0.00000000	      0.00000000	      0.00000000	      0.00000000	      0.00000000	      0.00000000	      0.00000000	      0.00000000	      0.00000000	    -12.46804791	    505.16024232	    -15.79004433	      0.82934101	      0.00000000	     -0.12931527	      0.00000000	     -0.82829468	      0.00000000
      0.93000000	      0.00000000	      0.00000000	      0.00000000	      0.00000000	      0.00000000	      0.00000000	      0.00000000	      0.00000000	      0.00000000	    -12.11618166	    505.61803579	    -15.79608992	      0.82954251	      0.00000000	     -0.12927794	      0.00000000	     -0.80494422	      0.00000000
      0.93100000	      0.00000000	      0.00000000	      0.00000000	      0.00000000	      0.00000000	      0.00000000	      0.00000000	      0.00000000	      0.00000000	    -11.76930359	    506.09317422	    -15.80992732	      0.82974764	      0.00000000	     -0.12923908	      0.00000000	     -0.78194328	      0.00000000
      0.93200000	      0.00000000	      0.00000000	      0.00000000	      0.00000000	      0.00000000	      0.00000000	      0.00000000	      0.00000000	      0.00000000	    -11.42647956	    506.58136606	    -15.83003104	      0.82995572	      0.00000000	     -0.12919900	      0.00000000	     -0.75924105	      0.00000000
      0.93300000	      0.00000000	      0.00000000	      0.00000000	      0.00000000	      0.00000000	      0.00000000	      0.00000000	      0.00000000	      0.00000000	    -11.08878432	    507.08460808	    -15.85797854	      0.83016753	      0.00000000	     -0.12915737	      0.00000000	     -0.73693332	      0.00000000
      0.93400000	      0.00000000	      0.00000000	      0.00000000	      0.00000000	      0.00000000	      0.00000000	      0.00000000	      0.00000000	      0.00000000	    -10.75522788	    507.59911537	    -15.89219011	      0.83038232	      0.00000000	     -0.12911450	      0.00000000	     -0.71495722	      0.00000000
      0.93500000	      0.00000000	      0.00000000	      0.00000000	      0.00000000	      0.00000000	      0.00000000	      0.00000000	      0.00000000	      0.00000000	    -10.42686775	    508.12658668	    -15.93419295	      0.83060090	      0.00000000	     -0.12907010	      0.00000000	     -0.69341455	      0.00000000
      0.93600000	      0.00000000	      0.00000000	      0.00000000	      0.00000000	      0.00000000	      0.00000000	      0.00000000	      0.00000000	      0.00000000	    -10.10267250	    508.66359472	    -15.98238274	      0.83082250	      0.00000000	     -0.12902446	      0.00000000	     -0.67223159	      0.00000000
      0.93700000	      0.00000000	      0.00000000	      0.00000000	      0.00000000	      0.00000000	      0.00000000	      0.00000000	      0.00000000	      0.00000000	     -9.78367263	    509.21148062	    -16.03821963	      0.83104791	      0.00000000	     -0.12897729	      0.00000000	     -0.65151285	      0.00000000
      0.93800000	      0.00000000	      0.00000000	      0.00000000	      0.00000000	      0.00000000	      0.00000000	      0.00000000	      0.00000000	      0.00000000	     -9.46880784	    509.76729393	    -16.10008478	      0.83127640	      0.00000000	     -0.12892890	      0.00000000	     -0.63117646	      0.00000000
